<svg viewBox="0 0 240 240" xmlns="http://www.w3.org/2000/svg" role="img" aria-label="SokoBase inspection stamp mark">
  <defs>
    <path id="arcTop" d="M 46,120 A 74,74 0 0 1 194,120" fill="none" />
    <path id="arcBottom" d="M 194,120 A 74,74 0 0 1 46,120" fill="none" />
  </defs>

  <g stroke="#1F7A4D" stroke-width="2.5" stroke-linecap="round" fill="none">
    <line x1="220.00" y1="120.00" x2="230.00" y2="120.00" />
    <line x1="218.77" y1="135.64" x2="228.65" y2="137.21" />
    <line x1="215.11" y1="150.90" x2="224.62" y2="153.99" />
    <line x1="209.10" y1="165.40" x2="218.01" y2="169.94" />
    <line x1="200.90" y1="178.78" x2="208.99" y2="184.66" />
    <line x1="190.71" y1="190.71" x2="197.78" y2="197.78" />
    <line x1="178.78" y1="200.90" x2="184.66" y2="208.99" />
    <line x1="165.40" y1="209.10" x2="169.94" y2="218.01" />
    <line x1="150.90" y1="215.11" x2="153.99" y2="224.62" />
    <line x1="135.64" y1="218.77" x2="137.21" y2="228.65" />
    <line x1="120.00" y1="220.00" x2="120.00" y2="230.00" />
    <line x1="104.36" y1="218.77" x2="102.79" y2="228.65" />
    <line x1="89.10" y1="215.11" x2="86.01" y2="224.62" />
    <line x1="74.60" y1="209.10" x2="70.06" y2="218.01" />
    <line x1="61.22" y1="200.90" x2="55.34" y2="208.99" />
    <line x1="49.29" y1="190.71" x2="42.22" y2="197.78" />
    <line x1="39.10" y1="178.78" x2="31.01" y2="184.66" />
    <line x1="30.90" y1="165.40" x2="21.99" y2="169.94" />
    <line x1="24.89" y1="150.90" x2="15.38" y2="153.99" />
    <line x1="21.23" y1="135.64" x2="11.35" y2="137.21" />
    <line x1="20.00" y1="120.00" x2="10.00" y2="120.00" />
    <line x1="21.23" y1="104.36" x2="11.35" y2="102.79" />
    <line x1="24.89" y1="89.10" x2="15.38" y2="86.01" />
    <line x1="30.90" y1="74.60" x2="21.99" y2="70.06" />
    <line x1="39.10" y1="61.22" x2="31.01" y2="55.34" />
    <line x1="49.29" y1="49.29" x2="42.22" y2="42.22" />
    <line x1="61.22" y1="39.10" x2="55.34" y2="31.01" />
    <line x1="74.60" y1="30.90" x2="70.06" y2="21.99" />
    <line x1="89.10" y1="24.89" x2="86.01" y2="15.38" />
    <line x1="104.36" y1="21.23" x2="102.79" y2="11.35" />
    <line x1="120.00" y1="20.00" x2="120.00" y2="10.00" />
    <line x1="135.64" y1="21.23" x2="137.21" y2="11.35" />
    <line x1="150.90" y1="24.89" x2="153.99" y2="15.38" />
    <line x1="165.40" y1="30.90" x2="169.94" y2="21.99" />
    <line x1="178.78" y1="39.10" x2="184.66" y2="31.01" />
    <line x1="190.71" y1="49.29" x2="197.78" y2="42.22" />
    <line x1="200.90" y1="61.22" x2="208.99" y2="55.34" />
    <line x1="209.10" y1="74.60" x2="218.01" y2="70.06" />
    <line x1="215.11" y1="89.10" x2="224.62" y2="86.01" />
    <line x1="218.77" y1="104.36" x2="228.65" y2="102.79" />
  </g>

  <circle cx="120" cy="120" r="92" fill="none" stroke="#1F7A4D" stroke-width="3" />
  <circle cx="120" cy="120" r="74" fill="none" stroke="#1F7A4D" stroke-width="1.5" />

  <text font-family="'IBM Plex Mono', monospace" font-size="15" font-weight="600" letter-spacing="4" fill="#1F7A4D">
    <textPath href="#arcTop" startOffset="50%" text-anchor="middle">SOKOBASE</textPath>
  </text>
  <text font-family="'IBM Plex Mono', monospace" font-size="12" font-weight="500" letter-spacing="3" fill="#1F7A4D">
    <textPath href="#arcBottom" startOffset="50%" text-anchor="middle">KIMANA &#183; VERIFIED</textPath>
  </text>

  <!-- Center: a location pin — verified, right here, with room to grow across Kajiado -->
  <g transform="translate(88,88) scale(2.7)" fill="#C97A2B" fill-rule="evenodd">
    <path d="M12 2C8.13 2 5 5.13 5 9c0 5.25 7 13 7 13s7-7.75 7-13c0-3.87-3.13-7-7-7zm0 9.5A2.5 2.5 0 1 1 12 6.5a2.5 2.5 0 0 1 0 5z" />
  </g>
</svg>
